<svg width="208" height="32" viewBox="0 0 208 32" fill="none" xmlns="http://www.w3.org/2000/svg">
<path d="M140 3H139V4V13.4282V14.4282H140H145.175H146.175V13.4282V9.78661H147.203V23.5244H145.316H144.316V24.5244V29.3473V30.3473H145.316H158.413H159.413V29.3473V24.5244V23.5244H158.413H156.491V9.78661H157.448V13.4282V14.4282H158.448H163.624H164.624V13.4282V4V3H163.624H140ZM173.692 9.78112L173.692 9.78103H173.679C168.379 9.78103 163.073 13.4948 163.032 20.2009C162.995 23.6867 164.306 26.373 166.372 28.1746C168.418 29.9583 171.137 30.8187 173.855 30.8187C176.742 30.8187 179.418 29.8883 181.373 28.0776C183.341 26.2555 184.505 23.6099 184.467 20.3426L184.466 20.3368C184.41 17.0749 183.264 14.4296 181.303 12.5939C179.35 10.7661 176.675 9.82 173.692 9.78112ZM202.153 23.0948H203.578H204.282L204.519 22.4316C204.95 21.228 205.038 19.8677 204.977 18.6803C204.916 17.4892 204.7 16.3832 204.456 15.6507L204.455 15.6487C203.271 12.1167 199.623 9.70851 195.093 9.70851C192.214 9.70851 189.588 10.663 187.674 12.4866C185.752 14.3174 184.622 16.9552 184.622 20.1729C184.622 23.9104 185.955 26.649 187.966 28.4435C189.955 30.2182 192.528 31 194.917 31C198.763 31 201.836 30.1121 204.665 27.5919L205.391 26.9455L204.765 26.2016L202.153 23.0948ZM193.887 23.0948H199.696C198.322 23.9988 197.054 24.0683 196.114 24.0683C194.89 24.0683 194.338 23.6719 194.043 23.3137C193.986 23.2436 193.934 23.1704 193.887 23.0948ZM175.249 20.3543C175.249 21.6252 175.041 22.6707 174.716 23.3582C174.386 24.0563 174.058 24.1771 173.855 24.1771C173.619 24.1771 173.245 24.0296 172.877 23.3501C172.513 22.6771 172.25 21.6212 172.25 20.2455C172.25 19.0407 172.492 18.0163 172.841 17.3309C173.203 16.6179 173.541 16.5001 173.671 16.4953C173.993 16.5073 174.357 16.7006 174.69 17.3661C175.033 18.0506 175.249 19.0873 175.249 20.3543ZM193.87 17.5049C193.91 17.4211 193.956 17.3395 194.006 17.262C194.245 16.8976 194.607 16.6039 195.304 16.6039C196.176 16.6039 196.465 16.8779 196.604 17.0888C196.679 17.2024 196.738 17.3409 196.784 17.5049H193.87Z" fill="#FDFDFD" stroke="#232120" stroke-width="2"/>
<path d="M1 2.04433H28.5722V12.8918H22.5318V7.5515H19.0801V25.6584H22.4907V31.2073H7.20477V25.6584H10.5743V7.5515H7.04041V12.8918H1V2.04433Z" fill="#232120"/>
<path d="M31.3735 4.25554C31.3735 2.33638 32.9349 0 35.8113 0C38.6466 0 40.3313 2.33638 40.3313 4.25554C40.3313 6.5502 38.7288 8.46936 35.8113 8.46936C33.2226 8.46936 31.3735 6.25815 31.3735 4.25554ZM41.7284 25.7419V31.2073H30.2229V25.7419H31.9487V15.7705H30.2229V10.3468H39.7561V25.7419H41.7284Z" fill="#232120"/>
<path d="M63.5922 19.7758H57.5518C57.4696 17.7731 56.8532 15.395 54.963 15.395C52.5386 15.395 51.347 18.0235 51.347 20.7353C51.347 23.4472 52.9495 25.6167 55.5794 25.6584C57.7572 25.7001 59.1954 24.7823 60.5514 23.2803L64.1674 27.5359C62.2362 29.6636 58.538 31.7914 54.1001 31.7914C48.0597 31.7914 42.8 28.0782 42.8 20.6519C42.8 13.2673 47.6488 9.97132 52.9085 9.97132C55.7027 9.97132 57.3463 11.515 58.0449 12.3494L58.7434 10.3468H63.5922V19.7758Z" fill="#232120"/>
<path d="M65.205 2.04433H92.7772V12.8918H86.7368V7.5515H83.2851V25.6584H86.6957V31.2073H71.4098V25.6584H74.7792V7.5515H71.2454V12.8918H65.205V2.04433Z" fill="#232120"/>
<path d="M94.1579 16.9387L92.4321 12.0991C94.0757 11.0978 97.6096 9.1369 101.39 9.1369C106.321 9.1369 112.526 11.0143 112.526 17.7314V25.867H114.991V31.2073H106.198L105.211 29.3299C103.691 31.4576 101.143 32 99.6641 32C95.7605 32 91.5692 29.8722 91.5692 25.0326C91.5692 20.3181 95.4728 17.3559 100.116 17.3559C102.541 17.3559 103.979 18.5658 104.184 18.8162V17.3559C104.184 15.4785 102.499 15.0196 100.281 15.0196C97.8561 15.0196 95.7194 16.0626 94.1579 16.9387ZM101.554 26.5763C102.787 26.5763 103.814 25.8253 104.184 25.1995V23.6141C104.061 23.4055 103.486 22.4042 101.76 22.4042C100.116 22.4042 99.3765 23.322 99.3765 24.6154C99.3765 25.7836 100.322 26.5763 101.554 26.5763Z" fill="#232120"/>
<path d="M136.425 19.7758H130.384C130.302 17.7731 129.686 15.395 127.796 15.395C125.371 15.395 124.18 18.0235 124.18 20.7353C124.18 23.4472 125.782 25.6167 128.412 25.6584C130.59 25.7001 132.028 24.7823 133.384 23.2803L137 27.5359C135.069 29.6636 131.37 31.7914 126.933 31.7914C120.892 31.7914 115.633 28.0782 115.633 20.6519C115.633 13.2673 120.481 9.97132 125.741 9.97132C128.535 9.97132 130.179 11.515 130.877 12.3494L131.576 10.3468H136.425V19.7758Z" fill="#232120"/>
</svg>
