<svg width="64" height="64" viewBox="0 0 64 64" fill="none" xmlns="http://www.w3.org/2000/svg">
<mask id="path-1-inside-1_17_240" fill="white">
<path fill-rule="evenodd" clip-rule="evenodd" d="M32 64C49.6731 64 64 49.6731 64 32C64 14.3269 49.6731 0 32 0C14.3269 0 0 14.3269 0 32C0 49.6731 14.3269 64 32 64ZM32 48C40.8366 48 48 40.8366 48 32C48 23.1634 40.8366 16 32 16C23.1634 16 16 23.1634 16 32C16 40.8366 23.1634 48 32 48Z"/>
</mask>
<path d="M62 32C62 48.5685 48.5685 62 32 62V66C50.7777 66 66 50.7777 66 32H62ZM32 2C48.5685 2 62 15.4315 62 32H66C66 13.2223 50.7777 -2 32 -2V2ZM2 32C2 15.4315 15.4315 2 32 2V-2C13.2223 -2 -2 13.2223 -2 32H2ZM32 62C15.4315 62 2 48.5685 2 32H-2C-2 50.7777 13.2223 66 32 66V62ZM46 32C46 39.732 39.732 46 32 46V50C41.9411 50 50 41.9411 50 32H46ZM32 18C39.732 18 46 24.268 46 32H50C50 22.0589 41.9411 14 32 14V18ZM18 32C18 24.268 24.268 18 32 18V14C22.0589 14 14 22.0589 14 32H18ZM32 46C24.268 46 18 39.732 18 32H14C14 41.9411 22.0589 50 32 50V46Z" fill="#232120" mask="url(#path-1-inside-1_17_240)"/>
</svg>
