<svg width="34" height="40" viewBox="0 0 34 40" fill="none" xmlns="http://www.w3.org/2000/svg">
<path fill-rule="evenodd" clip-rule="evenodd" d="M18.4143 1.67276L17 0.258545L14.1716 3.08697L15.5858 4.50119L18.8454 7.76072C18.2939 7.74577 17.681 7.73783 17 7.73783C13.8351 7.73783 10.7413 8.67632 8.10986 10.4346C5.47838 12.1929 3.42738 14.6921 2.21624 17.616C1.0051 20.54 0.688213 23.7574 1.30565 26.8614C1.92308 29.9655 3.44711 32.8167 5.685 35.0546C7.9229 37.2925 10.7741 38.8166 13.8782 39.434C16.9822 40.0514 20.1997 39.7345 23.1236 38.5234C26.0476 37.3123 28.5467 35.2613 30.305 32.6298C32.0633 29.9983 33.0018 26.9045 33.0018 23.7396V21.7396H29.0018V23.7396C29.0018 26.1134 28.2979 28.4338 26.9791 30.4075C25.6604 32.3812 23.7859 33.9195 21.5929 34.8279C19.3998 35.7363 16.9867 35.9739 14.6586 35.5109C12.3304 35.0478 10.1919 33.9047 8.51343 32.2262C6.83494 30.5477 5.69188 28.4092 5.22879 26.0811C4.7657 23.753 5.00337 21.3398 5.91176 19.1467C6.82015 16.9537 8.35845 15.0793 10.3321 13.7605C12.3058 12.4417 14.6263 11.7378 17 11.7378C17.9983 11.7378 18.8129 11.7558 19.475 11.7855L15.5858 15.6746L14.1716 17.0888L17 19.9172L18.4143 18.503L25.4152 11.5021C25.7902 11.127 26.001 10.6183 26.001 10.0879C26.001 9.55745 25.7902 9.04874 25.4152 8.67367L18.4143 1.67276Z" fill="#FDFDFD"/>
</svg>
