<svg width="64" height="64" viewBox="0 0 64 64" fill="none" xmlns="http://www.w3.org/2000/svg">
<mask id="path-1-inside-1_17_246" fill="white">
<path fill-rule="evenodd" clip-rule="evenodd" d="M32 20.6222L11.3778 0L0 11.3778L20.6222 32L3.8147e-06 52.6222L11.3778 64L32 43.3778L52.6222 64L64 52.6222L43.3778 32L64 11.3778L52.6222 1.99981e-06L32 20.6222Z"/>
</mask>
<path d="M11.3778 0L12.792 -1.41421L11.3778 -2.82843L9.96356 -1.41421L11.3778 0ZM32 20.6222L30.5858 22.0364L32 23.4507L33.4142 22.0364L32 20.6222ZM0 11.3778L-1.41421 9.96356L-2.82843 11.3778L-1.41421 12.792L0 11.3778ZM20.6222 32L22.0364 33.4142L23.4506 32L22.0364 30.5858L20.6222 32ZM3.8147e-06 52.6222L-1.41421 51.208L-2.82842 52.6222L-1.41421 54.0364L3.8147e-06 52.6222ZM11.3778 64L9.96357 65.4142L11.3778 66.8284L12.792 65.4142L11.3778 64ZM32 43.3778L33.4142 41.9636L32 40.5494L30.5858 41.9636L32 43.3778ZM52.6222 64L51.208 65.4142L52.6222 66.8284L54.0364 65.4142L52.6222 64ZM64 52.6222L65.4142 54.0364L66.8284 52.6222L65.4142 51.208L64 52.6222ZM43.3778 32L41.9636 30.5858L40.5494 32L41.9636 33.4142L43.3778 32ZM64 11.3778L65.4142 12.792L66.8284 11.3778L65.4142 9.96357L64 11.3778ZM52.6222 1.99981e-06L54.0364 -1.41421L52.6222 -2.82843L51.208 -1.41421L52.6222 1.99981e-06ZM9.96356 1.41421L30.5858 22.0364L33.4142 19.208L12.792 -1.41421L9.96356 1.41421ZM1.41421 12.792L12.792 1.41421L9.96356 -1.41421L-1.41421 9.96356L1.41421 12.792ZM22.0364 30.5858L1.41421 9.96356L-1.41421 12.792L19.208 33.4142L22.0364 30.5858ZM1.41422 54.0364L22.0364 33.4142L19.208 30.5858L-1.41421 51.208L1.41422 54.0364ZM12.792 62.5858L1.41422 51.208L-1.41421 54.0364L9.96357 65.4142L12.792 62.5858ZM30.5858 41.9636L9.96357 62.5858L12.792 65.4142L33.4142 44.792L30.5858 41.9636ZM54.0364 62.5858L33.4142 41.9636L30.5858 44.792L51.208 65.4142L54.0364 62.5858ZM62.5858 51.208L51.208 62.5858L54.0364 65.4142L65.4142 54.0364L62.5858 51.208ZM41.9636 33.4142L62.5858 54.0364L65.4142 51.208L44.792 30.5858L41.9636 33.4142ZM62.5858 9.96357L41.9636 30.5858L44.792 33.4142L65.4142 12.792L62.5858 9.96357ZM51.208 1.41422L62.5858 12.792L65.4142 9.96357L54.0364 -1.41421L51.208 1.41422ZM33.4142 22.0364L54.0364 1.41422L51.208 -1.41421L30.5858 19.208L33.4142 22.0364Z" fill="#232120" mask="url(#path-1-inside-1_17_246)"/>
</svg>
